<svg width="24" height="24" viewBox="0 0 24 24" fill="none" xmlns="http://www.w3.org/2000/svg">
<path d="M10.5338 15.6882L15.4583 12.541C15.6654 12.4065 15.769 12.2257 15.769 11.9987C15.769 11.7719 15.6654 11.5921 15.4583 11.4595L10.5338 8.31223C10.3264 8.16689 10.1089 8.15606 9.88103 8.27973C9.65319 8.40356 9.53928 8.59464 9.53928 8.85298V15.1415C9.53928 15.4056 9.65319 15.5991 9.88103 15.722C10.1089 15.8448 10.3264 15.8336 10.5338 15.6882ZM12.0008 22.1497C10.6098 22.1497 9.29694 21.8841 8.06227 21.3527C6.82778 20.8214 5.74953 20.0947 4.82753 19.1727C3.90553 18.2507 3.17886 17.1727 2.64753 15.9387C2.11619 14.7047 1.85052 13.3921 1.85052 12.001C1.85052 10.5933 2.11619 9.27214 2.64753 8.03748C3.17886 6.80298 3.90519 5.72881 4.82652 4.81498C5.74786 3.90098 6.82569 3.17748 8.06003 2.64448C9.29436 2.11131 10.6073 1.84473 11.9988 1.84473C13.4068 1.84473 14.7284 2.11114 15.9635 2.64398C17.1985 3.17681 18.2728 3.89989 19.1863 4.81323C20.0999 5.72656 20.8232 6.80056 21.356 8.03523C21.889 9.26989 22.1555 10.5916 22.1555 12.0002C22.1555 13.3919 21.8889 14.705 21.3558 15.9395C20.8228 17.174 20.0993 18.252 19.1853 19.1735C18.2714 20.095 17.1975 20.8214 15.9635 21.3527C14.7295 21.8841 13.4086 22.1497 12.0008 22.1497ZM12 20.4465C14.3507 20.4465 16.3461 19.6236 17.9863 17.9777C19.6263 16.3317 20.4463 14.3392 20.4463 12.0002C20.4463 9.64956 19.6263 7.65414 17.9863 6.01398C16.3461 4.37398 14.3497 3.55398 11.997 3.55398C9.66103 3.55398 7.66978 4.37398 6.02327 6.01398C4.37694 7.65414 3.55377 9.65056 3.55377 12.0032C3.55377 14.3392 4.37669 16.3305 6.02253 17.977C7.66853 19.6233 9.66103 20.4465 12 20.4465Z" fill="black"/>
</svg>
